Simulation
nRows=23
nColumns=15
endheader
time  TH_x TH_y TH_z SC_y  SC_z  SC_x  AC_y  AC_z  AC_x  GH_y  GH_z  GH_yy  EL_x  PS_y
0.0  0.000000  0.000000  0.000000  -28.941909946503788  -0.6696117648865408  -1.9795707755894107  55.344713332737854  8.023766813491745  -7.150347027865326  33.72089344608014  16.28566583030118  7.417166847197737  27.144597853455913  0.000000
0.038999999999999986  0.000000  0.000000  0.000000  -28.617353717642068  -0.5029018064423333  -2.0612464294136084  55.03424573649903  7.990390415308797  -7.16145261347214  33.75929208384563  16.72930803167204  7.239608151090644  26.724984863762145  0.000000
0.07799999999999997  0.000000  0.000000  0.000000  -28.326934332286168  -0.40628542597602363  -2.2312329535800592  54.713506042050774  7.920987482716412  -7.1858932836943366  33.73534697523991  17.0848067669371  7.144386396507626  26.30061290870578  0.000000
0.11699999999999997  0.000000  0.000000  0.000000  -28.07227861558911  -0.3770974712238694  -2.485317257956658  54.41957558827998  7.871960197260063  -7.192239965953303  33.78010882551281  17.41804565749695  6.970499088285865  25.89720707795125  0.000000
0.15599999999999994  0.000000  0.000000  0.000000  -27.858715862953733  -0.4100857075897642  -2.7966560076551543  54.19468696116077  7.879183570466545  -7.164087289395432  34.033118619716866  17.807836084534483  6.518397745911118  25.531300616061642  0.000000
0.19499999999999992  0.000000  0.000000  0.000000  -27.70265830060038  -0.4840806688353126  -3.1172001291100404  54.07211628336279  7.953038719275255  -7.091668518244964  34.620446544339124  18.329635160381855  5.605208802786445  25.221895959420316  0.000000
0.23399999999999993  0.000000  0.000000  0.000000  -27.61129251399234  -0.5737001055419059  -3.3963687766678237  54.065448784597514  8.090134953768636  -6.97951824015507  35.62952882554384  19.044705540186527  4.0901923374987375  24.981278071832758  0.000000
0.2729999999999999  0.000000  0.000000  0.000000  -27.586726110044744  -0.6560541707759335  -3.5868493654731357  54.17421527696155  8.275871111217821  -6.84252067887342  37.07036639200372  19.997975922306754  1.9263315501622371  24.812633892669574  0.000000
0.3119999999999999  0.000000  0.000000  0.000000  -27.61467056089427  -0.7139236183723594  -3.650956875273605  54.384545666371515  8.490415841567087  -6.702316425048034  38.868915159601265  21.213436857649597  -0.835122717196445  24.712387376928397  0.000000
0.35099999999999987  0.000000  0.000000  0.000000  -27.667270244862397  -0.7390694735582051  -3.561680401459797  54.67899432452676  8.713895304490109  -6.581673661823848  40.87640562435841  22.692356516158757  -4.045372470350655  24.672431012474288  0.000000
0.38999999999999985  0.000000  0.000000  0.000000  -27.707979614980317  -0.7277933851380495  -3.301671232260959  55.03652609413263  8.928931126624043  -6.500794866492472  42.92004187178412  24.412218684016644  -7.51207316020628  24.689224759859282  0.000000
0.4289999999999998  0.000000  0.000000  0.000000  -27.702490136492322  -0.6814394772813104  -2.8600097412559493  55.43780987159298  9.12296593327971  -6.477646055392937  44.84903359122608  26.331052886180302  -11.047286586730937  24.757241240879587  0.000000
0.46799999999999986  0.000000  0.000000  0.000000  -27.62570970535035  -0.6053648335779634  -2.23244669839417  55.863857179222215  9.289871078032059  -6.527175120201631  46.567664842443676  28.395251610967502  -14.510289789181503  24.862859777306614  0.000000
0.5069999999999998  0.000000  0.000000  0.000000  -27.46953058839348  -0.5031976800601012  -1.4197339969078207  56.2969148825173  9.426551642966999  -6.658879634868921  48.04429942288703  30.549149910830472  -17.82378382798344  24.98780650144117  0.000000
0.5459999999999998  0.000000  0.000000  0.000000  -27.244742904786328  -0.3754719785865706  -0.4260179692792112  56.71959021086435  9.52874990224936  -6.876186540739234  49.30102073845247  32.74403537671585  -20.97205335262417  25.1115767793253  0.000000
0.5849999999999997  0.000000  0.000000  0.000000  -26.97828944123208  -0.22191461427430875  0.7398978409940993  57.11681810633159  9.591137976910497  -7.177298470542931  50.39085084198588  34.94429499508859  -23.98499680469839  25.214439073437763  0.000000
0.6239999999999998  0.000000  0.000000  0.000000  -26.706327946548694  -0.041889058909817756  2.063429557240912  57.47737550685324  9.608600097780037  -7.553777070755071  51.373827515638496  37.12789784769972  -26.910812707590974  25.28207909339699  0.000000
0.6629999999999998  0.000000  0.000000  0.000000  -26.46251699105278  0.1654686927027163  3.5239821119990524  57.79651796316486  9.57859479420364  -7.989285201592577  52.29527084110019  39.282380634025756  -29.786304947332564  25.306779498845675  0.000000
0.7019999999999997  0.000000  0.000000  0.000000  -26.26752416952476  0.40103975691956545  5.096557692914354  58.07829677095548  9.503006182019254  -8.458942359196145  53.17062776274166  41.398230838813774  -32.61061354827438  25.285338447029115  0.000000
0.7409999999999998  0.000000  0.000000  0.000000  -26.12395457401294  0.6660008504335735  6.75361176321383  58.3352600868521  9.388127137729677  -8.929962001557426  53.98080517774044  43.4625274422612  -35.33533459985488  25.217723736467182  0.000000
0.7799999999999997  0.000000  0.000000  0.000000  -26.021810874055628  0.962159373458363  8.465242960413761  58.585123686333866  9.24280028157363  -9.36350610858909  54.6816542121352  45.45620698783908  -37.87726854683126  25.10783968293687  0.000000
0.8189999999999997  0.000000  0.000000  0.000000  -25.94888515636919  1.2921407094374746  10.196675704686463  58.84570767081794  9.07577081782418  -9.717569006656225  55.22064554665975  47.35653570454612  -40.1470828799474  24.96576821197609  0.000000
0.8579999999999997  0.000000  0.000000  0.000000  -25.898411260305327  1.6579102458275976  11.906399323142356  59.12974599035022  8.895562033417479  -9.95240166944576  55.55481960045646  49.142150566366766  -42.078170270428444  24.808586036439912  0.000000
